<svg
   xmlns="http://www.w3.org/2000/svg"
   version="1.1"
   id="svg2"
   viewBox="0 0 50.000002 50.000002"
   height="14.111112mm"
   width="14.111112mm">
  <g
     transform="translate(6.377697e-6,-1002.3622)"
     id="layer1">
    <path
       id="path4150"
       d="m 14.553565,1008.7908 c -2.349493,5.2986 -3.776072,11.0049 -4.196428,16.7857 -0.262054,3.6038 -0.125304,7.2932 1.019647,10.7204 1.144951,3.4271 3.38695,6.5866 6.569639,8.2974 1.530411,0.8226 3.263129,1.2966 5,1.25 1.803253,-0.048 3.56926,-0.6564 5.099968,-1.6108 1.530709,-0.9545 2.833868,-2.2463 3.920965,-3.6858 2.174194,-2.8791 3.480101,-6.3007 4.907638,-9.6141 1.484369,-3.4453 3.149026,-6.8974 3.571429,-10.625 0.569756,-5.0279 -1.347444,-10.3122 -5.120243,-13.6842 -1.8864,-1.686 -4.199842,-2.8945 -6.66639,-3.4578 -2.466549,-0.5633 -5.081136,-0.4778 -7.499082,0.267 -2.016889,0.6212 -3.892271,1.6973 -5.446428,3.125"
       style="fill:none;fill-rule:evenodd;stroke:#000000;stroke-width:1px;stroke-linecap:butt;stroke-linejoin:miter;stroke-opacity:1" />
    <path
       id="path4154"
       d="m 15.71428,1029.5051 14.553571,-1.875"
       style="fill:none;fill-rule:evenodd;stroke:#000000;stroke-width:1px;stroke-linecap:butt;stroke-linejoin:miter;stroke-opacity:1" />
    <path
       id="path4158"
       d="m 17.321423,1012.2729 3.303571,1.1607"
       style="fill:none;fill-rule:evenodd;stroke:#000000;stroke-width:1px;stroke-linecap:butt;stroke-linejoin:miter;stroke-opacity:1" />
    <path
       id="path4162"
       d="m 25.803565,1015.0408 6.785715,-0.8929"
       style="fill:none;fill-rule:evenodd;stroke:#000000;stroke-width:1px;stroke-linecap:butt;stroke-linejoin:miter;stroke-opacity:1" />
    <path
       id="path4166"
       d="m 21.607137,1021.7372 4.375,-0.8036"
       style="fill:none;fill-rule:evenodd;stroke:#000000;stroke-width:1px;stroke-linecap:butt;stroke-linejoin:miter;stroke-opacity:1" />
  </g>
</svg>
